<svg width="295" height="230" viewBox="0 0 295 230" fill="none" xmlns="http://www.w3.org/2000/svg">
<rect width="295" height="230" fill="#F5E29B"/>
<mask id="mask0" mask-type="alpha" maskUnits="userSpaceOnUse" x="5" y="5" width="285" height="220">
<rect x="5" y="5" width="285" height="220" fill="#C4C4C4"/>
</mask>
<g mask="url(#mask0)">
<g filter="url(#filter0_d)">
<circle cx="148" cy="115" r="100" fill="white"/>
</g>
<path d="M164.632 138.552H168.722H180.334H186.131V150.164H180.334H168.722H164.632H157.11V138.552H164.632Z" fill="#333333"/>
<path d="M163.39 121.127H168.722H180.334H191.946V132.74H180.334H168.722H163.39H157.11V121.127H163.39Z" fill="#333333"/>
<path d="M174.985 86.2891H180.333H191.946V97.9012H180.333H174.985H168.721V86.2891H174.985Z" fill="#333333"/>
<path d="M180.333 103.713H185.337H191.946V115.325H185.337H180.333H168.721V103.713H180.333Z" fill="#333333"/>
<path d="M162.924 92.1024V103.715V107.614V115.327H151.312V107.614V103.715V92.1024H145.497V115.327H151.312V126.939V138.551V150.163H139.7H128.088V144.348H116.476V138.551H104.864V97.8998H116.476V92.1024H122.273V86.2877H128.088H133.885V80.4902H139.7H151.312H155.626H162.924V92.1024Z" fill="#333333"/>
</g>
<defs>
<filter id="filter0_d" x="44" y="15" width="208" height="210" filterUnits="userSpaceOnUse" color-interpolation-filters="sRGB">
<feFlood flood-opacity="0" result="BackgroundImageFix"/>
<feColorMatrix in="SourceAlpha" type="matrix" values="0 0 0 0 0 0 0 0 0 0 0 0 0 0 0 0 0 0 127 0"/>
<feOffset dy="6"/>
<feGaussianBlur stdDeviation="2"/>
<feColorMatrix type="matrix" values="0 0 0 0 0 0 0 0 0 0 0 0 0 0 0 0 0 0 0.25 0"/>
<feBlend mode="normal" in2="BackgroundImageFix" result="effect1_dropShadow"/>
<feBlend mode="normal" in="SourceGraphic" in2="effect1_dropShadow" result="shape"/>
</filter>
</defs>
</svg>
