<svg width="295" height="230" viewBox="0 0 295 230" fill="none" xmlns="http://www.w3.org/2000/svg">
<rect width="295" height="230" fill="#F5E29B"/>
<mask id="mask0" mask-type="alpha" maskUnits="userSpaceOnUse" x="5" y="5" width="285" height="220">
<rect x="5" y="5" width="285" height="220" fill="#C4C4C4"/>
</mask>
<g mask="url(#mask0)">
<g filter="url(#filter0_d)">
<circle cx="148" cy="115" r="100" fill="white"/>
</g>
<g opacity="0.4">
<path d="M144.462 123.471H151.467H163.079H174.692V135.083H163.079H151.467H144.462H139.872V123.471H144.462Z" fill="#333333"/>
<path d="M134.059 106.063V94.4512H145.671V106.063V109.669V117.675H134.059V109.669V106.063Z" fill="#333333"/>
<path d="M134.057 94.4515H128.26V106.064V117.676H134.057V152.512H128.26H122.445H116.648H110.833V146.698H105.036H99.221V140.9H87.6089V100.266H99.221V94.4515H105.036V88.6541H110.833H116.648V82.8394H122.445H134.057H145.67V94.4515H134.057Z" fill="#333333"/>
<path d="M209.527 88.6522H197.915H192.118V94.4496H186.303H179.367H174.691V100.264H163.079V106.062H174.691H180.506V111.859H187.666H192.118H197.915V117.674H209.527V129.286H197.915V123.471H192.118H187.666H180.506V117.674H174.691H163.079H158.058H151.467V109.254V100.264V97.6417V93.8112V88.6522H156.747H163.079H174.691V82.8375H179.367H186.303V77.04H189.754H197.915H209.527V88.6522Z" fill="#333333"/>
<path d="M145.67 140.898H157.282H168.894V152.51H157.282H145.67H139.872V140.898H145.67Z" fill="#333333"/>
</g>
</g>
<defs>
<filter id="filter0_d" x="44" y="15" width="208" height="208" filterUnits="userSpaceOnUse" color-interpolation-filters="sRGB">
<feFlood flood-opacity="0" result="BackgroundImageFix"/>
<feColorMatrix in="SourceAlpha" type="matrix" values="0 0 0 0 0 0 0 0 0 0 0 0 0 0 0 0 0 0 127 0"/>
<feOffset dy="4"/>
<feGaussianBlur stdDeviation="2"/>
<feColorMatrix type="matrix" values="0 0 0 0 0 0 0 0 0 0 0 0 0 0 0 0 0 0 0.25 0"/>
<feBlend mode="normal" in2="BackgroundImageFix" result="effect1_dropShadow"/>
<feBlend mode="normal" in="SourceGraphic" in2="effect1_dropShadow" result="shape"/>
</filter>
</defs>
</svg>
